<svg id="visual" viewBox="0 0 540 960" width="540" height="960" xmlns="http://www.w3.org/2000/svg" xmlns:xlink="http://www.w3.org/1999/xlink" version="1.1"><rect x="0" y="0" width="540" height="960" fill="#fefefe"></rect><defs><linearGradient id="grad1_0" x1="0%" y1="100%" x2="100%" y2="0%"><stop offset="30%" stop-color="#6600ff" stop-opacity="1"></stop><stop offset="70%" stop-color="#6600ff" stop-opacity="1"></stop></linearGradient></defs><defs><linearGradient id="grad1_1" x1="0%" y1="100%" x2="100%" y2="0%"><stop offset="30%" stop-color="#6600ff" stop-opacity="1"></stop><stop offset="70%" stop-color="#9c58ff" stop-opacity="1"></stop></linearGradient></defs><defs><linearGradient id="grad1_2" x1="0%" y1="100%" x2="100%" y2="0%"><stop offset="30%" stop-color="#c390ff" stop-opacity="1"></stop><stop offset="70%" stop-color="#9c58ff" stop-opacity="1"></stop></linearGradient></defs><defs><linearGradient id="grad1_3" x1="0%" y1="100%" x2="100%" y2="0%"><stop offset="30%" stop-color="#c390ff" stop-opacity="1"></stop><stop offset="70%" stop-color="#e3c7ff" stop-opacity="1"></stop></linearGradient></defs><defs><linearGradient id="grad1_4" x1="0%" y1="100%" x2="100%" y2="0%"><stop offset="30%" stop-color="#fefefe" stop-opacity="1"></stop><stop offset="70%" stop-color="#e3c7ff" stop-opacity="1"></stop></linearGradient></defs><defs><linearGradient id="grad2_0" x1="0%" y1="100%" x2="100%" y2="0%"><stop offset="30%" stop-color="#6600ff" stop-opacity="1"></stop><stop offset="70%" stop-color="#6600ff" stop-opacity="1"></stop></linearGradient></defs><defs><linearGradient id="grad2_1" x1="0%" y1="100%" x2="100%" y2="0%"><stop offset="30%" stop-color="#9c58ff" stop-opacity="1"></stop><stop offset="70%" stop-color="#6600ff" stop-opacity="1"></stop></linearGradient></defs><defs><linearGradient id="grad2_2" x1="0%" y1="100%" x2="100%" y2="0%"><stop offset="30%" stop-color="#9c58ff" stop-opacity="1"></stop><stop offset="70%" stop-color="#c390ff" stop-opacity="1"></stop></linearGradient></defs><defs><linearGradient id="grad2_3" x1="0%" y1="100%" x2="100%" y2="0%"><stop offset="30%" stop-color="#e3c7ff" stop-opacity="1"></stop><stop offset="70%" stop-color="#c390ff" stop-opacity="1"></stop></linearGradient></defs><defs><linearGradient id="grad2_4" x1="0%" y1="100%" x2="100%" y2="0%"><stop offset="30%" stop-color="#e3c7ff" stop-opacity="1"></stop><stop offset="70%" stop-color="#fefefe" stop-opacity="1"></stop></linearGradient></defs><g transform="translate(540, 960)"><path d="M-378 0C-374.4 -40.7 -370.9 -81.4 -352.8 -114.6C-334.8 -147.9 -302.4 -173.8 -276.7 -201C-251 -228.2 -232.2 -256.6 -207.5 -285.6C-182.8 -314.5 -152.4 -344 -116.8 -359.5C-81.3 -375 -40.6 -376.5 0 -378L0 0Z" fill="#f1e2ff"></path><path d="M-302.4 0C-299.5 -32.5 -296.7 -65.1 -282.3 -91.7C-267.9 -118.4 -241.9 -139.1 -221.3 -160.8C-200.8 -182.6 -185.7 -205.3 -166 -228.5C-146.3 -251.6 -121.9 -275.2 -93.4 -287.6C-65 -300 -32.5 -301.2 0 -302.4L0 0Z" fill="#d4acff"></path><path d="M-226.8 0C-224.7 -24.4 -222.5 -48.8 -211.7 -68.8C-200.9 -88.8 -181.4 -104.3 -166 -120.6C-150.6 -136.9 -139.3 -154 -124.5 -171.3C-109.7 -188.7 -91.4 -206.4 -70.1 -215.7C-48.8 -225 -24.4 -225.9 0 -226.8L0 0Z" fill="#b175ff"></path><path d="M-151.2 0C-149.8 -16.3 -148.3 -32.5 -141.1 -45.9C-133.9 -59.2 -120.9 -69.5 -110.7 -80.4C-100.4 -91.3 -92.9 -102.7 -83 -114.2C-73.1 -125.8 -60.9 -137.6 -46.7 -143.8C-32.5 -150 -16.3 -150.6 0 -151.2L0 0Z" fill="#8438ff"></path><path d="M-75.6 0C-74.9 -8.1 -74.2 -16.3 -70.6 -22.9C-67 -29.6 -60.5 -34.8 -55.3 -40.2C-50.2 -45.6 -46.4 -51.3 -41.5 -57.1C-36.6 -62.9 -30.5 -68.8 -23.4 -71.9C-16.3 -75 -8.1 -75.3 0 -75.6L0 0Z" fill="#6600ff"></path></g><g transform="translate(0, 0)"><path d="M378 0C369.4 37.6 360.8 75.1 350.9 114C341.1 152.9 330.1 193.1 305.8 222.2C281.5 251.3 243.9 269.2 210.4 289.6C176.9 310.1 147.5 332.9 113.1 348.1C78.7 363.2 39.4 370.6 0 378L0 0Z" fill="#f1e2ff"></path><path d="M302.4 0C295.5 30.1 288.6 60.1 280.8 91.2C272.9 122.3 264.1 154.5 244.6 177.7C225.2 201 195.1 215.4 168.3 231.7C141.5 248 118 266.4 90.5 278.5C63 290.6 31.5 296.5 0 302.4L0 0Z" fill="#d4acff"></path><path d="M226.8 0C221.6 22.5 216.5 45.1 210.6 68.4C204.7 91.7 198.1 115.9 183.5 133.3C168.9 150.8 146.4 161.5 126.3 173.8C106.2 186 88.5 199.8 67.9 208.9C47.2 217.9 23.6 222.4 0 226.8L0 0Z" fill="#b175ff"></path><path d="M151.2 0C147.8 15 144.3 30.1 140.4 45.6C136.4 61.2 132 77.2 122.3 88.9C112.6 100.5 97.6 107.7 84.2 115.9C70.8 124 59 133.2 45.2 139.2C31.5 145.3 15.7 148.2 0 151.2L0 0Z" fill="#8438ff"></path><path d="M75.6 0C73.9 7.5 72.2 15 70.2 22.8C68.2 30.6 66 38.6 61.2 44.4C56.3 50.3 48.8 53.8 42.1 57.9C35.4 62 29.5 66.6 22.6 69.6C15.7 72.6 7.9 74.1 0 75.6L0 0Z" fill="#6600ff"></path></g></svg>