<?xml version="1.0" standalone="no"?>
<svg viewBox="0 0 200 200" xmlns="http://www.w3.org/2000/svg">
  <path fill="#FF0066" d="M42.6,-74.6C55.3,-66.4,65.9,-55.3,73.3,-42.3C80.7,-29.4,84.9,-14.7,85.2,0.2C85.6,15.1,81.9,30.1,75,43.8C68,57.5,57.7,69.8,44.6,76.3C31.6,82.8,15.8,83.5,0.5,82.7C-14.9,81.9,-29.7,79.5,-41.4,72.3C-53.1,65,-61.6,52.7,-68.1,39.9C-74.6,27,-79,13.5,-80.8,-1C-82.5,-15.5,-81.6,-31.1,-76,-45.4C-70.4,-59.8,-60,-72.9,-46.6,-80.7C-33.1,-88.4,-16.6,-90.8,-0.8,-89.4C14.9,-87.9,29.8,-82.7,42.6,-74.6Z" transform="translate(100 100)" />
</svg>
