<svg id="visual" viewBox="0 0 900 80" width="900" height="80" xmlns="http://www.w3.org/2000/svg" xmlns:xlink="http://www.w3.org/1999/xlink" version="1.1"><rect x="0" y="0" width="900" height="80" fill="#001220"></rect><defs><linearGradient id="grad1_0" x1="91.1%" y1="0%" x2="100%" y2="100%"><stop offset="-175%" stop-color="#001220" stop-opacity="1"></stop><stop offset="275%" stop-color="#001220" stop-opacity="1"></stop></linearGradient></defs><defs><linearGradient id="grad2_0" x1="0%" y1="0%" x2="8.9%" y2="100%"><stop offset="-175%" stop-color="#001220" stop-opacity="1"></stop><stop offset="275%" stop-color="#001220" stop-opacity="1"></stop></linearGradient></defs><g transform="translate(900, 0)"><path d="M0 72C-6.1 63.4 -12.3 54.8 -21.8 52.7C-31.4 50.5 -44.4 54.9 -50.9 50.9C-57.5 47 -57.6 34.7 -60.1 24.9C-62.5 15 -67.2 7.5 -72 0L0 0Z" fill="#FBAE3C"></path></g><g transform="translate(0, 80)"><path d="M0 -72C7.2 -66.3 14.3 -60.6 24.1 -58.2C33.9 -55.8 46.3 -56.8 50.9 -50.9C55.5 -45 52.3 -32.2 54.5 -22.6C56.7 -12.9 64.4 -6.5 72 0L0 0Z" fill="#FBAE3C"></path></g></svg>