<svg id="visual" viewBox="0 0 1536 1000" width="1536" height="1000" xmlns="http://www.w3.org/2000/svg" xmlns:xlink="http://www.w3.org/1999/xlink" version="1.1"><g fill="#faf6f6"><circle r="54" cx="1340" cy="174"></circle><circle r="27" cx="287" cy="738"></circle><circle r="50" cx="93" cy="408"></circle><circle r="50" cx="32" cy="227"></circle><circle r="49" cx="1166" cy="667"></circle><circle r="41" cx="1359" cy="788"></circle><circle r="33" cx="1494" cy="153"></circle><circle r="37" cx="878" cy="394"></circle><circle r="43" cx="61" cy="799"></circle><circle r="48" cx="1382" cy="390"></circle><circle r="44" cx="198" cy="207"></circle><circle r="39" cx="599" cy="713"></circle><circle r="29" cx="574" cy="53"></circle><circle r="28" cx="1239" cy="843"></circle><circle r="32" cx="159" cy="934"></circle><circle r="34" cx="527" cy="416"></circle><circle r="35" cx="870" cy="989"></circle><circle r="32" cx="1228" cy="467"></circle><circle r="32" cx="853" cy="514"></circle><circle r="47" cx="970" cy="642"></circle><circle r="39" cx="618" cy="229"></circle><circle r="51" cx="1222" cy="85"></circle><circle r="50" cx="1380" cy="16"></circle><circle r="52" cx="162" cy="534"></circle><circle r="51" cx="429" cy="245"></circle><circle r="37" cx="344" cy="570"></circle><circle r="31" cx="496" cy="650"></circle><circle r="34" cx="905" cy="240"></circle><circle r="44" cx="1123" cy="188"></circle><circle r="37" cx="161" cy="79"></circle><circle r="26" cx="973" cy="871"></circle><circle r="51" cx="326" cy="346"></circle><circle r="35" cx="1037" cy="403"></circle><circle r="37" cx="1516" cy="658"></circle><circle r="43" cx="758" cy="403"></circle><circle r="29" cx="745" cy="803"></circle><circle r="45" cx="1041" cy="39"></circle><circle r="35" cx="1072" cy="758"></circle><circle r="37" cx="284" cy="25"></circle><circle r="47" cx="846" cy="140"></circle><circle r="33" cx="635" cy="545"></circle><circle r="33" cx="701" cy="679"></circle></g></svg>