<svg id="visual" viewBox="0 0 1536 400" width="1536" height="400" xmlns="http://www.w3.org/2000/svg" xmlns:xlink="http://www.w3.org/1999/xlink" version="1.1"><path d="M0 63L23.3 85.7C46.7 108.3 93.3 153.7 139.8 172.5C186.3 191.3 232.7 183.7 279.2 185.3C325.7 187 372.3 198 419 207.2C465.7 216.3 512.3 223.7 558.8 221.3C605.3 219 651.7 207 698.2 188.8C744.7 170.7 791.3 146.3 837.8 133.8C884.3 121.3 930.7 120.7 977.2 126.3C1023.7 132 1070.3 144 1117 138.5C1163.7 133 1210.3 110 1256.8 99.7C1303.3 89.3 1349.7 91.7 1396.2 88.7C1442.7 85.7 1489.3 77.3 1512.7 73.2L1536 69L1536 401L1512.7 401C1489.3 401 1442.7 401 1396.2 401C1349.7 401 1303.3 401 1256.8 401C1210.3 401 1163.7 401 1117 401C1070.3 401 1023.7 401 977.2 401C930.7 401 884.3 401 837.8 401C791.3 401 744.7 401 698.2 401C651.7 401 605.3 401 558.8 401C512.3 401 465.7 401 419 401C372.3 401 325.7 401 279.2 401C232.7 401 186.3 401 139.8 401C93.3 401 46.7 401 23.3 401L0 401Z" fill="#eeeeee"></path><path d="M0 178L23.3 196.3C46.7 214.7 93.3 251.3 139.8 261.2C186.3 271 232.7 254 279.2 234.5C325.7 215 372.3 193 419 192.7C465.7 192.3 512.3 213.7 558.8 229.8C605.3 246 651.7 257 698.2 257.8C744.7 258.7 791.3 249.3 837.8 236.2C884.3 223 930.7 206 977.2 205.2C1023.7 204.3 1070.3 219.7 1117 238C1163.7 256.3 1210.3 277.7 1256.8 277C1303.3 276.3 1349.7 253.7 1396.2 239.2C1442.7 224.7 1489.3 218.3 1512.7 215.2L1536 212L1536 401L1512.7 401C1489.3 401 1442.7 401 1396.2 401C1349.7 401 1303.3 401 1256.8 401C1210.3 401 1163.7 401 1117 401C1070.3 401 1023.7 401 977.2 401C930.7 401 884.3 401 837.8 401C791.3 401 744.7 401 698.2 401C651.7 401 605.3 401 558.8 401C512.3 401 465.7 401 419 401C372.3 401 325.7 401 279.2 401C232.7 401 186.3 401 139.8 401C93.3 401 46.7 401 23.3 401L0 401Z" fill="#e6e6e6"></path><path d="M0 246L23.3 245C46.7 244 93.3 242 139.8 246.2C186.3 250.3 232.7 260.7 279.2 262.3C325.7 264 372.3 257 419 261.3C465.7 265.7 512.3 281.3 558.8 279.8C605.3 278.3 651.7 259.7 698.2 265.7C744.7 271.7 791.3 302.3 837.8 308.5C884.3 314.7 930.7 296.3 977.2 298.3C1023.7 300.3 1070.3 322.7 1117 327.7C1163.7 332.7 1210.3 320.3 1256.8 308.2C1303.3 296 1349.7 284 1396.2 289.5C1442.7 295 1489.3 318 1512.7 329.5L1536 341L1536 401L1512.7 401C1489.3 401 1442.7 401 1396.2 401C1349.7 401 1303.3 401 1256.8 401C1210.3 401 1163.7 401 1117 401C1070.3 401 1023.7 401 977.2 401C930.7 401 884.3 401 837.8 401C791.3 401 744.7 401 698.2 401C651.7 401 605.3 401 558.8 401C512.3 401 465.7 401 419 401C372.3 401 325.7 401 279.2 401C232.7 401 186.3 401 139.8 401C93.3 401 46.7 401 23.3 401L0 401Z" fill="#d6d6d6"></path></svg>