<svg id="visual" viewBox="0 0 1536 400" width="1536" height="400" xmlns="http://www.w3.org/2000/svg" xmlns:xlink="http://www.w3.org/1999/xlink" version="1.1"><path d="M0 41L28.5 47.7C57 54.3 114 67.7 170.8 70.3C227.7 73 284.3 65 341.2 64.3C398 63.7 455 70.3 512 65C569 59.7 626 42.3 682.8 39.7C739.7 37 796.3 49 853.2 56.3C910 63.7 967 66.3 1024 72.3C1081 78.3 1138 87.7 1194.8 82.3C1251.7 77 1308.3 57 1365.2 54.3C1422 51.7 1479 66.3 1507.5 73.7L1536 81L1536 0L1507.5 0C1479 0 1422 0 1365.2 0C1308.3 0 1251.7 0 1194.8 0C1138 0 1081 0 1024 0C967 0 910 0 853.2 0C796.3 0 739.7 0 682.8 0C626 0 569 0 512 0C455 0 398 0 341.2 0C284.3 0 227.7 0 170.8 0C114 0 57 0 28.5 0L0 0Z" fill="#f0f0f0"></path><path d="M0 165L28.5 177C57 189 114 213 170.8 227.7C227.7 242.3 284.3 247.7 341.2 243C398 238.3 455 223.7 512 212.3C569 201 626 193 682.8 177.7C739.7 162.3 796.3 139.7 853.2 129.7C910 119.7 967 122.3 1024 139C1081 155.7 1138 186.3 1194.8 192.3C1251.7 198.3 1308.3 179.7 1365.2 169C1422 158.3 1479 155.7 1507.5 154.3L1536 153L1536 79L1507.5 71.7C1479 64.3 1422 49.7 1365.2 52.3C1308.3 55 1251.7 75 1194.8 80.3C1138 85.7 1081 76.3 1024 70.3C967 64.3 910 61.7 853.2 54.3C796.3 47 739.7 35 682.8 37.7C626 40.3 569 57.7 512 63C455 68.3 398 61.7 341.2 62.3C284.3 63 227.7 71 170.8 68.3C114 65.7 57 52.3 28.5 45.7L0 39Z" fill="#ececec"></path><path d="M0 273L28.5 288.3C57 303.7 114 334.3 170.8 338.3C227.7 342.3 284.3 319.7 341.2 318.3C398 317 455 337 512 331.7C569 326.3 626 295.7 682.8 277C739.7 258.3 796.3 251.7 853.2 251C910 250.3 967 255.7 1024 259C1081 262.3 1138 263.7 1194.8 267.7C1251.7 271.7 1308.3 278.3 1365.2 279.7C1422 281 1479 277 1507.5 275L1536 273L1536 151L1507.5 152.3C1479 153.7 1422 156.3 1365.2 167C1308.3 177.7 1251.7 196.3 1194.8 190.3C1138 184.3 1081 153.7 1024 137C967 120.3 910 117.7 853.2 127.7C796.3 137.7 739.7 160.3 682.8 175.7C626 191 569 199 512 210.3C455 221.7 398 236.3 341.2 241C284.3 245.7 227.7 240.3 170.8 225.7C114 211 57 187 28.5 175L0 163Z" fill="#e8e8e8"></path><path d="M0 353L28.5 359C57 365 114 377 170.8 373.7C227.7 370.3 284.3 351.7 341.2 351C398 350.3 455 367.7 512 367C569 366.3 626 347.7 682.8 343C739.7 338.3 796.3 347.7 853.2 356.3C910 365 967 373 1024 373C1081 373 1138 365 1194.8 360.3C1251.7 355.7 1308.3 354.3 1365.2 352.3C1422 350.3 1479 347.7 1507.5 346.3L1536 345L1536 271L1507.5 273C1479 275 1422 279 1365.2 277.7C1308.3 276.3 1251.7 269.7 1194.8 265.7C1138 261.7 1081 260.3 1024 257C967 253.7 910 248.3 853.2 249C796.3 249.7 739.7 256.3 682.8 275C626 293.7 569 324.3 512 329.7C455 335 398 315 341.2 316.3C284.3 317.7 227.7 340.3 170.8 336.3C114 332.3 57 301.7 28.5 286.3L0 271Z" fill="#e0e0e0"></path><path d="M0 401L28.5 401C57 401 114 401 170.8 401C227.7 401 284.3 401 341.2 401C398 401 455 401 512 401C569 401 626 401 682.8 401C739.7 401 796.3 401 853.2 401C910 401 967 401 1024 401C1081 401 1138 401 1194.8 401C1251.7 401 1308.3 401 1365.2 401C1422 401 1479 401 1507.5 401L1536 401L1536 343L1507.5 344.3C1479 345.7 1422 348.3 1365.2 350.3C1308.3 352.3 1251.7 353.7 1194.8 358.3C1138 363 1081 371 1024 371C967 371 910 363 853.2 354.3C796.3 345.7 739.7 336.3 682.8 341C626 345.7 569 364.3 512 365C455 365.7 398 348.3 341.2 349C284.3 349.7 227.7 368.3 170.8 371.7C114 375 57 363 28.5 357L0 351Z" fill="#d8d8d8"></path></svg>