<svg height="512" viewBox="0 0 64 64" width="512" xmlns="http://www.w3.org/2000/svg"><g fill-rule="evenodd"><path d="m48 64h-32a16.0007 16.0007 0 0 1 -16-16v-32a16.0007 16.0007 0 0 1 16-16h32a16 16 0 0 1 16 16v32a16 16 0 0 1 -16 16" fill="#0f9dff"/><path d="m30 18h18a9.0006 9.0006 0 0 0 .92-17.954c-.306-.017-.609-.046-.92-.046h-32a16.0007 16.0007 0 0 0 -16 16v32a30.0007 30.0007 0 0 1 30-30" fill="#00b7ff"/><path d="m48 32a16 16 0 1 0 16 16v-32a16 16 0 0 1 -16 16" fill="#1d83ff"/></g><path d="m24.576 48.256c15.338 0 23.845-13.024 23.328-24.4a16.5237 16.5237 0 0 0 3.057-2.864.4978.4978 0 0 0 -.543-.786 16.886 16.886 0 0 1 -2.058.521.2492.2492 0 0 1 -.194-.444 8.2292 8.2292 0 0 0 2.169-2.607.4915.4915 0 0 0 -.657-.661 16.8159 16.8159 0 0 1 -3.998 1.321 8.2066 8.2066 0 0 0 -14.192 5.616 8.7355 8.7355 0 0 0 .147 1.559.25.25 0 0 1 -.261.296 23.2741 23.2741 0 0 1 -15.556-7.375.9936.9936 0 0 0 -1.685.364 7.97 7.97 0 0 0 2.493 8.896.2444.2444 0 0 1 -.186.433 7.9164 7.9164 0 0 1 -1.381-.316.9883.9883 0 0 0 -.967.196.9485.9485 0 0 0 -.315.935c1.738 6.692 6.445 5.839 6.445 6.346 0 .343-.931.343-2.179.346a.9856.9856 0 0 0 -.87 1.44 8.2789 8.2789 0 0 0 6.317 4.074.2473.2473 0 0 1 .126.447 16.372 16.372 0 0 1 -7.707 2.997.9685.9685 0 0 0 -.309 1.854 22.9462 22.9462 0 0 0 8.976 1.812z" fill="#fff"/></svg>