<?xml version="1.0" standalone="no"?><svg xmlns="http://www.w3.org/2000/svg" viewBox="0 0 1440 320"><path fill="#5000ca" fill-opacity="1" d="M0,288L13.3,266.7C26.7,245,53,203,80,170.7C106.7,139,133,117,160,90.7C186.7,64,213,32,240,42.7C266.7,53,293,107,320,154.7C346.7,203,373,245,400,229.3C426.7,213,453,139,480,138.7C506.7,139,533,213,560,256C586.7,299,613,309,640,298.7C666.7,288,693,256,720,256C746.7,256,773,288,800,261.3C826.7,235,853,149,880,122.7C906.7,96,933,128,960,144C986.7,160,1013,160,1040,181.3C1066.7,203,1093,245,1120,229.3C1146.7,213,1173,139,1200,122.7C1226.7,107,1253,149,1280,138.7C1306.7,128,1333,64,1360,42.7C1386.7,21,1413,43,1427,53.3L1440,64L1440,0L1426.7,0C1413.3,0,1387,0,1360,0C1333.3,0,1307,0,1280,0C1253.3,0,1227,0,1200,0C1173.3,0,1147,0,1120,0C1093.3,0,1067,0,1040,0C1013.3,0,987,0,960,0C933.3,0,907,0,880,0C853.3,0,827,0,800,0C773.3,0,747,0,720,0C693.3,0,667,0,640,0C613.3,0,587,0,560,0C533.3,0,507,0,480,0C453.3,0,427,0,400,0C373.3,0,347,0,320,0C293.3,0,267,0,240,0C213.3,0,187,0,160,0C133.3,0,107,0,80,0C53.3,0,27,0,13,0L0,0Z"></path></svg>